<svg xmlns="http://www.w3.org/2000/svg"
     width="30"
     height="30"
     viewBox="0 0 7.02 6.35"
     style="shape-rendering:geometricPrecision; text-rendering:geometricPrecision; image-rendering:optimizeQuality; fill-rule:evenodd; clip-rule:evenodd;">
 <path fill="white" d="M6.49 0.69c0,-0.38 -0.31,-0.69 -0.69,-0.69H0.69C0.31,0 0,0.31 0,0.69v4.03c0,0.38 0.31,0.69 0.69,0.69h3.68l-1.48-1.77 1.41-2.01c0.15,-0.21 0.46,-0.22 0.62,-0.02l1.57 1.93V0.69zM2.7 3.4l-0.44-0.57c-0.25,-0.33 -0.74,-0.36 -1.03,-0.06l-0.93 0.93V0.69c0,-0.21 0.17,-0.39 0.39,-0.39h5.11c0.21,0 0.39,0.17 0.39,0.39v2L5.2 1.42c-0.29,-0.35 -0.84,-0.33 -1.1,0.04l-1.36 1.94zM0.3 4.12l1.14-1.14c0.16,-0.16 0.44,-0.15 0.58,0.04l0.57 0.73 1.14 1.37H0.69c-0.21,0 -0.39,-0.17 -0.39,-0.39v-0.61zM2.57 1.12c0.21,0 0.39,0.17 0.39,0.39 0,0.21 -0.17,0.39 -0.39,0.39 -0.21,0 -0.39,-0.17 -0.39,-0.39 0,-0.21 0.17,-0.39 0.39,-0.39zM3.26 1.51c0,-0.38 -0.31,-0.69 -0.69,-0.69 -0.38,0 -0.69,0.31 -0.69,0.69 0,0.38 0.31,0.69 0.69,0.69 0.38,0 0.69,-0.31 0.69,-0.69zM5.66 3.51c-0.08,0 -0.15,0.07 -0.15,0.15v1.06H4.58c-0.08,0 -0.15,0.07 -0.15,0.15 0,0.08 0.07,0.15 0.15,0.15h0.93v1.19c0,0.08 0.07,0.15 0.15,0.15 0.08,0 0.15,-0.07 0.15,-0.15V4.86h1.06c0.08,0 0.15,-0.07 0.15,-0.15 0,-0.08 -0.07,-0.15 -0.15,-0.15H5.81v-1.06c0,-0.08 -0.07,-0.15 -0.15,-0.15z"/>
</svg>
