<?xml version="1.0" encoding="UTF-8"?>
<!DOCTYPE svg PUBLIC "-//W3C//DTD SVG 1.1//EN" "http://www.w3.org/Graphics/SVG/1.1/DTD/svg11.dtd">
<!-- Creator: CorelDRAW -->
<svg xmlns="http://www.w3.org/2000/svg" xml:space="preserve" width="0.304681in" height="0.27552in" version="1.1" style="shape-rendering:geometricPrecision; text-rendering:geometricPrecision; image-rendering:optimizeQuality; fill-rule:evenodd; clip-rule:evenodd"
viewBox="0 0 7.02 6.35"
 xmlns:xlink="http://www.w3.org/1999/xlink"
 xmlns:xodm="http://www.corel.com/coreldraw/odm/2003">
 <defs>
  <style type="text/css">
   <![CDATA[
    .fil0 {fill:#1F97D7}
   ]]>
  </style>
 </defs>
 <g id="Layer_x0020_1">
  <metadata id="CorelCorpID_0Corel-Layer"/>
  <path class="fil0" d="M6.49 0.69c0,-0.38 -0.31,-0.69 -0.69,-0.69l-5.11 0c-0.38,0 -0.69,0.31 -0.69,0.69l0 4.03c0,0.38 0.31,0.69 0.69,0.69l3.68 0 -1.48 -1.77 1.41 -2.01c0.15,-0.21 0.46,-0.22 0.62,-0.02l1.57 1.93 0 -2.84zm-3.79 2.71l-0.44 -0.57c-0.25,-0.33 -0.74,-0.36 -1.03,-0.06l-0.93 0.93 0 -3c0,-0.21 0.17,-0.39 0.39,-0.39l5.11 0c0.21,0 0.39,0.17 0.39,0.39l0 2 -1.03 -1.27c-0.29,-0.35 -0.84,-0.33 -1.1,0.04l-1.36 1.94zm-2.4 0.72l1.14 -1.14c0.16,-0.16 0.44,-0.15 0.58,0.04l0.57 0.73c0,0 0,0 0,0l1.14 1.37 -3.04 0c-0.21,0 -0.39,-0.17 -0.39,-0.39l0 -0.61zm2.27 -3c0.21,0 0.39,0.17 0.39,0.39 0,0.21 -0.17,0.39 -0.39,0.39 -0.21,0 -0.39,-0.17 -0.39,-0.39 0,-0.21 0.17,-0.39 0.39,-0.39zm0.69 0.39c0,-0.38 -0.31,-0.69 -0.69,-0.69 -0.38,0 -0.69,0.31 -0.69,0.69 0,0.38 0.31,0.69 0.69,0.69 0.38,0 0.69,-0.31 0.69,-0.69zm2.4 2c-0.08,0 -0.15,0.07 -0.15,0.15l0 1.06 -0.93 0c-0.08,0 -0.15,0.07 -0.15,0.15 0,0.08 0.07,0.15 0.15,0.15l0.93 0 0 1.19c0,0.08 0.07,0.15 0.15,0.15 0.08,0 0.15,-0.07 0.15,-0.15l0 -1.19 1.06 0c0.08,0 0.15,-0.07 0.15,-0.15 0,-0.08 -0.07,-0.15 -0.15,-0.15l-1.06 0 0 -1.06c0,-0.08 -0.07,-0.15 -0.15,-0.15z"/>
 </g>
</svg>
