<svg width="32" height="32" viewBox="0 0 32 32" fill="none" xmlns="http://www.w3.org/2000/svg">
<path d="M22 5H5V28H22V25H19.7388C19.4705 25 19.2481 24.9348 19.0718 24.8045C18.9031 24.6665 18.7805 24.4978 18.7038 24.2985L17.4618 20.906H10.5733L9.3313 24.2985C9.26996 24.4748 9.1473 24.6358 8.9633 24.7815C8.78696 24.9272 8.56846 25 8.3078 25H5.9043L12.4363 8.371H15.5988L22 24.667V5Z" fill="#333333"/>
<path d="M16.6683 18.721H11.3668L13.3908 13.2125C13.4905 12.9595 13.5901 12.6643 13.6898 12.327C13.7971 11.9897 13.9045 11.6255 14.0118 11.2345C14.1191 11.6255 14.2265 11.9897 14.3338 12.327C14.4488 12.6567 14.5523 12.9442 14.6443 13.1895L16.6683 18.721Z" fill="#333333"/>
<path fill-rule="evenodd" clip-rule="evenodd" d="M24.375 29V3H25.625V29H24.375Z" fill="#333333"/>
</svg>
