<?xml version="1.0" encoding="UTF-8"?>
<!DOCTYPE svg PUBLIC "-//W3C//DTD SVG 1.1//EN" "http://www.w3.org/Graphics/SVG/1.1/DTD/svg11.dtd">
<!-- Creator: CorelDRAW -->
<svg xmlns="http://www.w3.org/2000/svg" xml:space="preserve" width="0.214843in" height="0.270835in" version="1.1" style="shape-rendering:geometricPrecision; text-rendering:geometricPrecision; image-rendering:optimizeQuality; fill-rule:evenodd; clip-rule:evenodd"
viewBox="0 0 3.34 4.21"
 xmlns:xlink="http://www.w3.org/1999/xlink"
 xmlns:xodm="http://www.corel.com/coreldraw/odm/2003">
 <defs>
  <style type="text/css">
   <![CDATA[
    .fil1 {fill:#1F97D7}
    .fil0 {fill:#1F97D7;fill-rule:nonzero}
   ]]>
  </style>
 </defs>
 <g id="Layer_x0020_1">
  <metadata id="CorelCorpID_0Corel-Layer"/>
  <g id="_2713871188464">
   <path class="fil0" d="M2.75 0.32l-2.75 0 0 3.72 2.75 0 0 -0.49 -0.37 0c-0.04,0 -0.08,-0.01 -0.11,-0.03 -0.03,-0.02 -0.05,-0.05 -0.06,-0.08l-0.2 -0.55 -1.12 0 -0.2 0.55c-0.01,0.03 -0.03,0.05 -0.06,0.08 -0.03,0.02 -0.06,0.04 -0.11,0.04l-0.39 0 1.06 -2.69 0.51 0 1.04 2.64 0 -3.18z"/>
   <path class="fil0" d="M1.89 2.55l-0.86 0 0.33 -0.89c0.02,-0.04 0.03,-0.09 0.05,-0.14 0.02,-0.05 0.03,-0.11 0.05,-0.18 0.02,0.06 0.03,0.12 0.05,0.18 0.02,0.05 0.04,0.1 0.05,0.14l0.33 0.9z"/>
   <polygon class="fil1" points="3.14,4.21 3.14,0 3.34,0 3.34,4.21 "/>
  </g>
 </g>
</svg>
